<svg id="SvgjsSvg1001" width="288" height="288" xmlns="http://www.w3.org/2000/svg" version="1.1" xmlns:xlink="http://www.w3.org/1999/xlink" xmlns:svgjs="http://svgjs.com/svgjs"><defs id="SvgjsDefs1002"></defs><g id="SvgjsG1008"><svg xmlns="http://www.w3.org/2000/svg" width="288" height="288" class="jss3" viewBox="0 0 179 31"><g fill="#ffffff" fill-rule="evenodd" class="colorcurrentColor svgShape"><path d="M175.04 2.34C175.04 2.08 175.09 1.83 175.19 1.6 175.29 1.37 175.43 1.17 175.6 1 175.78.83 175.98.71 176.2.61 176.43.51 176.67.46 176.93.46 177.19.46 177.44.51 177.66.61 177.89.71 178.09.83 178.26 1 178.43 1.17 178.56 1.37 178.67 1.6 178.77 1.83 178.82 2.08 178.82 2.34 178.82 2.62 178.77 2.87 178.67 3.1 178.56 3.33 178.43 3.53 178.26 3.71 178.09 3.87 177.89 4 177.66 4.1 177.44 4.19 177.19 4.24 176.93 4.24 176.67 4.24 176.43 4.19 176.2 4.1 175.98 4 175.78 3.87 175.6 3.71 175.43 3.53 175.29 3.33 175.19 3.1 175.09 2.87 175.04 2.62 175.04 2.34zM175.38 2.34C175.38 2.57 175.42 2.79 175.5 2.99 175.58 3.18 175.69 3.35 175.83 3.5 175.97 3.64 176.13 3.76 176.32 3.84 176.51 3.93 176.71 3.96 176.93 3.96 177.15 3.96 177.35 3.93 177.54 3.84 177.73 3.76 177.89 3.64 178.03 3.5 178.17 3.35 178.27 3.18 178.36 2.99 178.44 2.79 178.48 2.57 178.48 2.34 178.48 2.11 178.44 1.91 178.36 1.71 178.27 1.51 178.17 1.35 178.03 1.21 177.89 1.06 177.73.95 177.54.87 177.35.78 177.15.74 176.93.74 176.71.74 176.51.78 176.32.87 176.13.95 175.97 1.06 175.83 1.21 175.69 1.35 175.58 1.51 175.5 1.71 175.42 1.91 175.38 2.11 175.38 2.34zM177.05 1.24C177.31 1.24 177.51 1.3 177.63 1.4 177.76 1.51 177.82 1.66 177.82 1.88 177.82 2.08 177.76 2.22 177.65 2.32 177.54 2.41 177.41 2.46 177.24 2.48L177.87 3.45 177.5 3.45 176.9 2.51 176.54 2.51 176.54 3.45 176.2 3.45 176.2 1.24 177.05 1.24zM176.54 2.23L176.9 2.23C176.98 2.23 177.04 2.23 177.12 2.22 177.18 2.21 177.25 2.2 177.3 2.17 177.35 2.15 177.4 2.11 177.43 2.07 177.46 2.02 177.48 1.95 177.48 1.86 177.48 1.79 177.46 1.73 177.43 1.69 177.41 1.64 177.37 1.61 177.32 1.58 177.27 1.56 177.22 1.54 177.16 1.54 177.1 1.53 177.05 1.52 177 1.52L176.54 1.52 176.54 2.23zM51.14 20.32C51.07 19.58 50.23 19.11 48.98 19.08 47.32 19.3 45.45 19.38 45.45 19.38 39.08 19.38 37.91 15.8 37.91 13.84 37.91 6.95 51.76 5.6 51.76 13.93 51.76 20.05 51.33 22.07 52.63 22.59 54.6 23.38 56.53 23.02 57.39 22.63 59.47 21.68 58.72 21.03 58.72 12.47 58.72 9.46 52.24 4 44.32 4.4 37.5 4.75 30.59 7.28 30.02 13.9 29.85 15.8 31.67 23.28 44.59 23.07 50.55 22.97 51.52 21.91 51.14 20.32zM131.63 23.17C123.63 23.17 117.91 18.8 117.91 13.75 117.91 8.71 123.71 4.53 131.71 4.53 139.71 4.53 145.67 8.73 145.67 13.77 145.67 18.81 139.63 23.17 131.63 23.17zM125.15 13.96C125.15 17.01 128.13 19.48 131.81 19.48 135.48 19.48 138.47 17.01 138.47 13.96 138.47 10.9 135.48 8.42 131.81 8.42 128.13 8.42 125.15 10.9 125.15 13.96zM111.43 10.78C113.85 11.58 115.28 9.85 115.06 9.05 114.62 7.41 110.35 4.24 103 4.24 90.47 4.24 85.02 15.3 91.26 15.3 100.83 15.3 103.02 15.36 107.9 15.37 108.03 15.37 108.46 15.22 108.41 15.69 107.64 18.33 103.9 18.83 101.95 18.83 95.15 18.83 95.66 16.2 93.49 16.2 92.58 16.2 90.69 16.45 90.69 17.99 90.69 19.01 94.25 23.06 103.8 23.06 106.92 23.06 116.4 21.65 117.09 13.83 117.18 12.97 116.29 11.71 114.71 11.71 109.3 11.71 104.71 11.65 97.72 11.65 97.05 11.65 97.34 8.57 104.15 8.57 108.34 8.57 110.93 10.61 111.43 10.78z" fill="#ffffff" class="color000 svgShape"></path><path d="M82.14 10.89C84.56 11.69 85.98 9.97 85.76 9.16 85.32 7.53 81.06 4.35 73.71 4.35 61.17 4.35 55.73 15.43 61.97 15.41 71.42 15.38 73.73 15.47 78.61 15.48 78.73 15.48 79.17 15.33 79.11 15.8 78.34 18.44 74.61 18.94 72.66 18.94 65.85 18.94 66.36 16.31 64.2 16.31 63.28 16.31 61.39 16.57 61.39 18.1 61.39 19.12 64.96 23.17 74.51 23.17 77.62 23.17 87.1 21.76 87.8 13.94 87.88 13.08 86.99 11.83 85.41 11.83 80.01 11.83 75.41 11.76 68.42 11.76 67.76 11.76 68.04 8.68 74.85 8.68 79.04 8.68 81.63 10.73 82.14 10.89zM169.35 10.8C171.77 11.6 173.2 9.87 172.98 9.07 172.54 7.43 168.27 4.25 160.92 4.25 148.38 4.25 142.95 15.32 149.18 15.32 158.75 15.32 160.94 15.38 165.82 15.38 165.95 15.38 166.38 15.23 166.33 15.7 165.55 18.35 161.82 18.84 159.87 18.84 153.07 18.84 153.57 16.21 151.41 16.21 150.5 16.21 148.61 16.47 148.61 18.01 148.61 19.02 152.17 23.07 161.72 23.07 164.84 23.07 174.32 21.67 175.02 13.84 175.09 12.98 174.21 11.73 172.63 11.73 167.22 11.73 162.63 11.66 155.64 11.66 154.97 11.66 155.26 8.58 162.07 8.58 166.25 8.58 168.85 10.63 169.35 10.8zM5.55 26.76C5.87 27.12 6.03 27.59 6.03 28.15 6.03 28.76 5.84 29.26 5.48 29.66 5.05 30.14 4.45 30.38 3.66 30.38 2.92 30.38 2.34 30.17 1.91 29.76 1.54 29.35 1.35 28.85 1.35 28.24 1.35 27.68 1.51 27.21 1.83 26.82 2.25 26.32 2.86 26.07 3.67 26.07 4.52 26.07 5.14 26.3 5.55 26.76zM4.98 29.36C5.23 29.01 5.36 28.61 5.36 28.15 5.36 27.68 5.22 27.29 4.92 27 4.62 26.71 4.22 26.56 3.71 26.56 3.21 26.56 2.8 26.71 2.49 27 2.18 27.28 2.02 27.71 2.02 28.27 2.02 28.73 2.16 29.1 2.42 29.42 2.69 29.73 3.13 29.88 3.73 29.88 4.31 29.88 4.72 29.71 4.98 29.36zM14.59 26.18L17.91 26.18 17.91 26.68 15.24 26.68 15.24 27.92 17.59 27.92 17.59 28.4 15.24 28.4 15.24 30.26 14.59 30.26 14.59 26.18M30.62 28.94C30.64 29.17 30.7 29.36 30.81 29.51 31.03 29.78 31.41 29.91 31.95 29.91 32.2 29.91 32.42 29.88 32.62 29.82 33.01 29.71 33.2 29.5 33.2 29.2 33.2 28.98 33.12 28.83 32.96 28.73 32.79 28.64 32.53 28.55 32.18 28.48L31.53 28.36C31.1 28.28 30.8 28.19 30.63 28.09 30.32 27.92 30.17 27.67 30.17 27.33 30.17 26.96 30.32 26.66 30.61 26.43 30.92 26.19 31.34 26.08 31.89 26.08 32.39 26.08 32.82 26.18 33.16 26.38 33.52 26.59 33.69 26.92 33.69 27.37L33.08 27.37C33.05 27.15 32.98 26.99 32.88 26.87 32.68 26.66 32.34 26.55 31.87 26.55 31.48 26.55 31.21 26.62 31.04 26.76 30.87 26.89 30.79 27.06 30.79 27.23 30.79 27.44 30.89 27.59 31.08 27.68 31.21 27.74 31.5 27.81 31.95 27.9L32.63 28.03C32.95 28.09 33.2 28.18 33.38 28.29 33.68 28.48 33.83 28.76 33.83 29.12 33.83 29.57 33.64 29.89 33.25 30.09 32.87 30.28 32.42 30.38 31.91 30.38 31.31 30.38 30.85 30.25 30.51 29.99 30.17 29.73 30.01 29.38 30.01 28.94L30.62 28.94zM43.69 26.18L44.59 29.5 45.68 26.18 46.38 26.18 47.47 29.5 48.37 26.18 49.09 26.18 47.82 30.26 47.14 30.26 46.03 26.88 44.92 30.26 44.24 30.26 42.99 26.18 43.69 26.18M59.82 30.26L60.48 30.26 60.48 26.18 59.82 26.18 59.82 30.26zM76.21 26.18L76.21 26.67 74.59 26.67 74.59 30.26 73.93 30.26 73.93 26.67 72.31 26.67 72.31 26.18 76.21 26.18M86.48 29.8L89.43 26.66 86.7 26.66 86.7 26.18 90.27 26.18 90.27 26.65 87.31 29.77 90.27 29.77 90.27 30.25 86.48 30.25 86.48 29.8M100.72 26.18L104.22 26.18 104.22 26.68 101.35 26.68 101.35 27.92 104 27.92 104 28.39 101.35 28.39 101.35 29.77 104.26 29.77 104.26 30.26 100.72 30.26 100.72 26.18M114.61 26.18L116.83 26.18C117.2 26.18 117.5 26.22 117.73 26.31 118.18 26.49 118.42 26.81 118.42 27.28 118.42 27.52 118.35 27.73 118.23 27.88 118.11 28.04 117.95 28.16 117.73 28.25 117.92 28.32 118.06 28.4 118.16 28.51 118.25 28.61 118.31 28.79 118.32 29.02L118.34 29.57C118.35 29.73 118.36 29.84 118.39 29.91 118.43 30.05 118.49 30.13 118.6 30.16L118.6 30.26 117.8 30.26C117.78 30.22 117.76 30.18 117.75 30.12 117.73 30.07 117.72 29.96 117.71 29.8L117.67 29.12C117.66 28.85 117.54 28.68 117.32 28.58 117.2 28.53 117 28.51 116.74 28.51L115.26 28.51 115.26 30.26 114.61 30.26 114.61 26.18zM117.48 27.89C117.66 27.79 117.75 27.6 117.75 27.33 117.75 27.04 117.63 26.84 117.38 26.74 117.25 26.68 117.07 26.65 116.85 26.65L115.26 26.65 115.26 28.05 116.76 28.05C117.07 28.05 117.3 27.99 117.48 27.89zM129.18 26.18L129.83 26.18 129.83 29.77 132.26 29.77 132.26 30.26 129.18 30.26 129.18 26.18M144.5 26.18L145.23 26.18 146.98 30.26 146.26 30.26 145.78 29.04 143.88 29.04 143.36 30.26 142.69 30.26 144.5 26.18zM144.84 26.78L144.06 28.59 145.57 28.59 144.84 26.78zM157.04 26.18L157.81 26.18 160.23 29.48 160.23 26.18 160.85 26.18 160.85 30.26 160.13 30.26 157.66 26.96 157.66 30.26 157.04 30.26 157.04 26.18M171.08 26.18L173.02 26.18C173.68 26.18 174.19 26.38 174.56 26.77 174.88 27.13 175.04 27.59 175.04 28.15 175.04 28.59 174.95 28.98 174.75 29.33 174.42 29.95 173.84 30.26 173.01 30.26L171.08 30.26 171.08 26.18zM173.43 29.73C173.68 29.66 173.89 29.52 174.05 29.31 174.18 29.15 174.27 28.94 174.33 28.68 174.36 28.52 174.38 28.38 174.38 28.25 174.38 27.74 174.26 27.35 174.02 27.07 173.79 26.79 173.41 26.65 172.88 26.65L171.73 26.65 171.73 29.78 172.88 29.78C173.11 29.78 173.29 29.76 173.43 29.73zM19.08 10.58L19.08 4.32 12.86 10.58 6.65 10.58 6.65 16.85.43 23.11 6.65 23.11 12.86 16.85 12.86 23.11 19.08 23.11 19.08 16.85 25.3 16.85 25.3 10.58 19.08 10.58" fill="#ffffff" class="color000 svgShape"></path></g></svg></g></svg>