<svg id="Lager_1" data-name="Lager 1" xmlns="http://www.w3.org/2000/svg" viewBox="0 0 248.1 85.14"><defs><style>.cls-1{fill:#fff;}</style></defs><path class="cls-1" d="M78.08,35.35C78,10.63,71.15.12,39,0,7-.11-.1,10.51-.1,35.35c0,1.63,0,3.2.1,4.72V85.14H17.1V68.36c5.5,1.87,12.63,2.78,21.84,2.78C71.15,71.14,78.2,60.85,78.08,35.35ZM39,55.39c-17.89,0-21.75-6.11-21.75-19.94S21.14,15.69,39,15.75s21.73,5.92,21.79,19.7C60.84,49.66,56.91,55.39,39,55.39Z" transform="translate(0.1)"/><path class="cls-1" d="M163.39,35.39c.11,25.5-6.94,35.79-39.15,35.79s-39-11-39-35.79S92.25-.07,124.27,0C156.45.16,163.28,10.67,163.39,35.39Zm-39.1-19.6c-17.84-.06-21.77,5.86-21.77,19.7s3.87,19.95,21.75,19.95,21.88-5.74,21.81-19.95C146,21.72,142.22,15.86,124.29,15.79Z" transform="translate(0.1)"/><path class="cls-1" d="M248,44.73c-1.82,18.71-10.83,26.46-38.77,26.46-32.1,0-39-11-39-35.79s7-35.46,39.07-35.35c28.31.1,37,8.25,38.75,27H230.26c-1.83-7.8-7.27-11.25-21-11.29-17.84-.06-21.77,5.86-21.77,19.7s3.87,20,21.75,20c13.38,0,19-3.19,20.92-10.7Z" transform="translate(0.1)"/></svg>