<svg xmlns="http://www.w3.org/2000/svg" width="237" height="44" viewBox="0 0 237 44">
            <g fill="#ffffff" fill-rule="nonzero">
              <path d="M0 18.8h25.1v3.5H7v2.2h17.1v3H7v2.2h18.4v3.6H0zm28.5 0H39l13.6 10.5V18.8h7v14.5H49.3S35.5 22.7 35.6 22.8v10.5h-7V18.8h-.1zM111 29.7s2.9 0 4.9-.1c.9 0 1.6-.2 2-.8.5-.7.4-2 .4-3.2v-6.8h7v7.8c0 2.1.1 3.6-.8 4.8-.8 1.1-2.6 1.6-4.1 1.9-1 .2-7.4.2-9.4.2s-8.4 0-9.4-.2c-1.5-.3-3.3-.9-4.1-1.9-.9-1.2-.8-2.6-.8-4.8v-7.8h7v6.8c0 1.2-.1 2.5.4 3.2.4.6 1.1.8 2 .8 2 .1 4.9.1 4.9.1zm63.2-7.4l-4.3 5.1h8.7c0-.1-4-4.9-4.4-5.1zm-4.4-3.5h9l12.3 14.5h-7.7l-2.2-2.4h-14l-2.2 2.4h-7.7s11.9-13.6 12.5-14.5zm-83.3 8.9c-.5 2-2.7 2-5.2 2h-11v-7.4h11c2.5 0 4.7 0 5.2 2v3.4zm7.1-3.8c0-4.1-4.6-5.1-9.8-5.1H63.3v14.5h20.4c5.2 0 9.8-1 9.8-5.1.1-.9.1-3.4.1-4.3zm41.6-1.5v3.5h10.6c1 0 1.6.2 2.5-.4.4-.2.8-1.1.6-1.9-.3-1.4-1.9-1.2-3.1-1.2h-10.6zm-7.1-3.6h15.7c3.3 0 6.9-.2 9.4.7 1.1.4 2.1 1 2.5 2.1.6 1.3.4 3.5-.3 4.6-.4.6-1.3 1-2.1 1.3-.3.1-.9.2-.9.2.2.1.7.2.7.2s1.1.3 1.5.6c1.5.9 1.2 2.6 1.2 5h-7c0-.9.2-2.4-.2-3-.5-.8-2.3-.7-3.6-.7h-9.8v3.7h-7.1V18.8zm81-4.6c-3.9 2.3-6.5 3.6-8.8 1.2l9.1 10.9 9.2 10.8c-2-2.7-.3-5 2.7-8.5l3.2 3.8 1-19.8-19.7-2.2 3.3 3.8z"></path>
              <path d="M203.1 15.8h.5c.3 0 .6-.1.9-.2l.4-.1c.5-.2 1-.4 1.5-.7l-4.1-4.8c-.4.4-.8.8-1.1 1.2l-.3.4c-.2.2-.3.5-.4.7l-.2.4c-.4.9-.3 1.5-.1 1.9.7.6 1.5 1.3 2.9 1.2zm16.3 16.5l-.2.4c-.1.3-.3.6-.3.8l-.1.5c-.3 1.4.2 2.4.8 3 .3.3 1 .5 1.9.3l.4-.1c.2-.1.5-.2.8-.3l.4-.2c.4-.2.9-.5 1.4-.9l-4.1-4.8c-.4.4-.7.9-1 1.3z"></path>
              <path d="M214.4 40.4c-10.2 0-18.5-8.3-18.5-18.5s8.3-18.5 18.5-18.5 18.5 8.3 18.5 18.5c-.1 10.3-8.4 18.5-18.5 18.5zm0-40.4c-12.1 0-22 9.9-22 22s9.9 22 22 22 22-9.9 22-22c-.1-12.1-9.9-22-22-22z"></path>
            </g>
          </svg>