<svg viewBox="0 0 101 69" fill="none" xmlns="http://www.w3.org/2000/svg">
    <path fill="#FFFFFF" fill-rule="evenodd" clip-rule="evenodd" d="M63.7966 5.4531H64.4984C64.5914 5.44699 64.6847 5.45999 64.7721 5.49125C64.8196 5.51757 64.8585 5.55639 64.8841 5.60321C64.9097 5.65002 64.9211 5.70291 64.9168 5.7557L64.9379 6.15578C64.9398 6.22242 64.9453 6.28891 64.9545 6.35498C64.961 6.38879 64.9722 6.42159 64.9879 6.45245L65.0054 6.48466H65.5168V6.32955L65.48 6.31345C65.4606 6.30188 65.4441 6.2863 65.4316 6.26784C65.4192 6.24937 65.4111 6.22847 65.4081 6.20664C65.3936 6.14374 65.3862 6.07951 65.3861 6.01508L65.3747 5.69298C65.3783 5.57343 65.3454 5.4555 65.28 5.35393C65.2419 5.30659 65.1948 5.26662 65.1414 5.23611C65.2128 5.1866 65.2738 5.12448 65.3212 5.05302C65.3932 4.93672 65.4288 4.80279 65.4238 4.66736C65.4346 4.53728 65.4032 4.40719 65.3341 4.2951C65.2649 4.18302 65.1614 4.0945 65.0379 4.04181C64.8815 3.98144 64.7141 3.95259 64.5458 3.95704H63.337V6.48382H63.7975V5.45225L63.7966 5.4531ZM63.7966 4.35967H64.5528C64.6373 4.35572 64.7216 4.3705 64.7993 4.40289C64.8529 4.4315 64.8966 4.47493 64.9245 4.52763C64.9525 4.58033 64.9636 4.6399 64.9563 4.69871C64.9633 4.75046 64.9569 4.80306 64.9378 4.85186C64.9186 4.90065 64.8873 4.94413 64.8466 4.97843C64.7458 5.03885 64.6283 5.0684 64.5098 5.06319H63.7966V4.36306V4.35967ZM64.323 7.56454C64.8018 7.56706 65.2707 7.43214 65.6701 7.1769C66.0696 6.92165 66.3816 6.55756 66.5667 6.13078C66.7517 5.70399 66.8015 5.23372 66.7097 4.77957C66.6178 4.32542 66.3885 3.90784 66.0509 3.57974C65.7132 3.25165 65.2822 3.02781 64.8128 2.93661C64.3433 2.8454 63.8564 2.89093 63.4137 3.06743C62.971 3.24392 62.5925 3.54344 62.3262 3.92801C62.0599 4.31258 61.9177 4.7649 61.9177 5.22763C61.9168 5.84564 62.1696 6.43877 62.6207 6.87688C63.0718 7.31499 63.6843 7.5623 64.3238 7.56454H64.323ZM64.323 3.28318C64.7217 3.281 65.112 3.39325 65.4446 3.60571C65.7772 3.81817 66.037 4.12127 66.1911 4.47658C66.3452 4.83189 66.3866 5.2234 66.3102 5.6015C66.2337 5.9796 66.0428 6.32725 65.7616 6.60038C65.4804 6.8735 65.1217 7.0598 64.7308 7.13566C64.3399 7.21153 63.9345 7.17353 63.566 7.0265C63.1975 6.87946 62.8825 6.63 62.6608 6.30975C62.4392 5.9895 62.321 5.61288 62.3212 5.22763C62.3205 4.71334 62.531 4.21978 62.9064 3.85525C63.2819 3.49071 63.7916 3.28497 64.3238 3.28318H64.323ZM38.1519 64.2792H45.5203V62.5967H38.1519V60.5971H46.1747V58.9163H31.4756L28.7159 61.9881L26.0212 58.9163H0.994019V68.4241H12.4703V66.7424H4.08963V64.2792H11.458V62.5967H4.08963V60.5971H16.5089V68.4241H19.6668V60.598H23.9195L26.8624 63.5646L21.9773 68.4241H25.6615L28.7142 65.1794L31.5782 68.4241H46.5309V66.7424H38.1501V64.2792H38.1519ZM35.0554 68.0443L30.5063 63.4841L35.0554 58.9781V68.0477V68.0443ZM93.7274 58.6645C92.0256 58.6645 87.9379 59.0629 86.78 61.9576C86.2387 60.4369 84.6879 58.9163 80.8835 58.9163H70.9712V65.5371H70.93L64.9273 58.9163H61.6002V61.8406C60.3809 59.0493 56.3808 58.6645 54.694 58.6645C52.694 58.6645 47.4291 59.2079 47.4291 63.6698C47.4291 68.1317 52.6922 68.675 54.694 68.675C56.3808 68.675 60.3809 68.2893 61.6002 65.4998V68.4241H64.5493V61.6431H64.5958L70.7659 68.4241H80.758C84.4186 68.4241 86.0808 66.8424 86.7089 65.1955C87.7615 68.2622 91.9922 68.6758 93.7264 68.6758C95.7352 68.6758 100.998 68.1325 100.998 63.6706C100.998 59.2087 95.7361 58.6645 93.7274 58.6645ZM54.6975 66.9933C52.9923 66.9933 50.5914 66.3313 50.5914 63.6698C50.5914 61.0082 52.9923 60.3462 54.6975 60.3462C56.4028 60.3462 58.8036 61.0082 58.8036 63.6698C58.8036 66.3313 56.4045 66.9933 54.6975 66.9933ZM80.3765 66.7814H77.3063V60.5573H80.3388C81.6879 60.5573 83.8142 60.7827 83.8142 63.5901C83.8063 65.1522 82.9458 66.7814 80.3765 66.7814ZM93.7274 66.9933C92.0256 66.9933 89.6221 66.3313 89.6221 63.6698C89.6221 61.0082 92.0256 60.3462 93.7274 60.3462C95.4291 60.3462 97.8414 61.0082 97.8414 63.6698C97.8414 66.3313 95.4379 66.9933 93.7274 66.9933ZM33.9484 49.8331C34.0186 49.8484 39.9264 51.2495 50.9957 51.2495C62.065 51.2495 67.9721 49.8484 68.0431 49.8331C73.487 49.0228 73.2616 45.5721 73.258 45.5365C73.8598 28.1152 68.801 18.3235 64.4519 13.1826C59.7151 7.58827 54.8966 6.16426 54.6949 6.10662C53.2966 5.5777 52.8581 5.86081 52.9063 3.53578C52.9177 2.9721 53.0764 0.0215149 50.9957 0.0215149C48.915 0.0215149 49.0738 2.9721 49.0861 3.53578C49.1326 5.86081 48.6949 5.5777 47.2966 6.10662C47.094 6.16426 42.2756 7.58658 37.5396 13.1826C33.1905 18.3235 28.1308 28.1152 28.7335 45.5365C28.7309 45.5721 28.5045 49.0228 33.9484 49.8331ZM60.6484 23.4202C62.7747 22.9625 65.1852 25.6029 66.0308 29.3189C66.8764 33.0349 65.8396 36.4177 63.7124 36.8746C61.5852 37.3315 59.1765 34.692 58.33 30.976C57.4835 27.26 58.5238 23.8771 60.6484 23.4202ZM32.1484 43.0436C32.1467 40.1822 32.3239 37.3233 32.6791 34.4826C33.4247 28.6687 35.037 22.7947 38.3264 17.8251C39.7064 15.7165 41.4152 13.8266 43.3923 12.2222C44.9607 10.9644 49.2431 7.95021 50.1466 11.2348C50.4975 12.5062 48.0852 14.4015 47.0221 15.7034C45.2347 17.6759 43.8523 19.9591 42.9484 22.4311C42.5589 23.4948 41.7765 25.452 42.3984 26.5598C43.1414 27.877 44.9615 28.1017 46.2229 27.9923C48.4607 27.7982 53.0352 27.6346 53.2949 30.542C53.4958 32.7763 50.7712 33.8698 49.0466 34.1597C47.8563 34.3286 46.6518 34.3853 45.4502 34.3292C44.8768 34.2974 44.303 34.383 43.7662 34.5804C43.2295 34.7778 42.742 35.0825 42.3356 35.4747C41.9293 35.8668 41.6132 36.3374 41.4081 36.8558C41.2031 37.3741 41.1137 37.9285 41.1458 38.4826C41.0905 42.1316 45.5809 42.0688 49.9177 42.352C52.8414 42.5418 53.9817 43.4768 53.923 45.3356C53.8703 47.0309 53.1835 47.8107 50.2589 47.9115C48.9852 47.9573 47.2116 47.8861 45.9414 47.8344C43.009 47.7399 40.0859 47.4653 37.1896 47.0122C35.9668 46.8661 34.7728 46.5474 33.6457 46.0663C33.3258 45.9224 33.0389 45.718 32.8022 45.4651C32.5655 45.2122 32.3837 44.916 32.2677 44.5939C32.1591 44.0843 32.119 43.5632 32.1484 43.0436Z"></path>
</svg>